The Next Three Days (2010)

Director: Paul Haggis

The Next Three Days is a 2010 thriller film directed by Paul Haggis and starring Russell Crowe and Elizabeth Banks. It was released in the United States on November 19, 2010. It was filmed on location in Pittsburgh. It is a remake of the 2007 French film Pour Elle (Anything for Her) by Fred Cavayé.

His wife convicted of a murder she swears she did not commit, a college professor plots to break her out of prison in this thriller starring Russell Crowe and Liam Neeson. John Brennan (Crowe) and his wife, Lara (Elizabeth Banks), were happily married and raising a family when their lives fell apart in the blink of an eye. Lara has been charged with murder, and despite every effort to prove her innocence, the judge sentences her to an extended prison sentence. Meanwhile, on the outside, John files multiple appeals while struggling to raise their children and maintain his career. Lara's future starts to look especially grim, however, after the final appeal is rejected, and she admits that she'd rather commit suicide than spend the rest of her life behind bars. Determined to save his wife after the justice system fails her, John seeks the advice of ex-convict Damon Pennington (Liam Neeson), who staged his own daring prison escape, in order to draw up an airtight plan. Later, John prepares to put his life on the line for the woman he loves, and sets the plan into motion with the knowledge that one false move could be their last. 

Media Info:
General
Complete name                    : J:\Seeding\The Next Three Days (2010)[DVDRip][big_dad_e™]\The Next Three Days (2010)[DVDRip][big_dad_e™].avi
Format                           : AVI
Format/Info                      : Audio Video Interleave
Format profile                   : OpenDML
File size                        : 1.21 GiB
Duration                         : 2h 13mn
Overall bit rate                 : 1 302 Kbps
Movie name                       : NEXT_THREE_DAYS.Title1.DVDRip
Writing application              : Lavf52.78.4
Original source form/Name        : NEXT_THREE_DAYS

Video
ID                               : 0
Format                           : MPEG-4 Visual
Format profile                   : Advanced Simple@L5
Format settings, BVOP            : 2
Format settings, QPel            : No
Format settings, GMC             : No warppoints
Format settings, Matrix          : Default (H.263)
Muxing mode                      : Packed bitstream
Codec ID                         : XVID
Codec ID/Hint                    : XviD
Duration                         : 2h 13mn
Bit rate                         : 196 Kbps
Width                            : 720 pixels
Height                           : 306 pixels
Display aspect ratio             : 2.35:1
Frame rate                       : 23.976 fps
Color space                      : YUV
Chroma subsampling               : 4:2:0
Bit depth                        : 8 bits
Scan type                        : Progressive
Compression mode                 : Lossy
Bits/(Pixel*Frame)               : 0.037
Stream size                      : 187 MiB (15%)
Writing library                  : XviD 

Audio
ID                               : 1
Format                           : MPEG Audio
Format version                   : Version 1
Format profile                   : Layer 3
Mode                             : Joint stereo
Mode extension                   : MS Stereo
Codec ID                         : 55
Codec ID/Hint                    : MP3
Duration                         : 2h 13mn
Bit rate mode                    : Constant
Bit rate                         : 320 Kbps
Channel(s)                       : 2 channels
Sampling rate                    : 48.0 KHz
Compression mode                 : Lossy
Stream size                      : 48.5 MiB (4%)
Alignment                        : Aligned on interleaves
Interleave, duration             : 30 ms (0.73 video frame)
Writing library                  : LAME

File Scan:
Malwarebytes' Anti-Malware 1.50.1.1100
www.malwarebytes.org

Database version: 6046
3/13/2011 11:53:33 PM
mbam-log-2011-03-13 (23-53-33).txt

Scan type: Quick scan
Objects scanned: 5
Time elapsed: 14 second(s)

Memory Processes Infected: 0
Memory Modules Infected: 0
Registry Keys Infected: 0
Registry Values Infected: 0
Registry Data Items Infected: 0
Folders Infected: 0
Files Infected: 0

Memory Processes Infected:
(No malicious items detected)

Memory Modules Infected:
(No malicious items detected)

Registry Keys Infected:
(No malicious items detected)

Registry Values Infected:
(No malicious items detected)

Registry Data Items Infected:
(No malicious items detected)

Folders Infected:
(No malicious items detected)

Files Infected:
(No malicious items detected)

When using TPB please read these important notes:
  
01- Anti-malware apps may warn about keygens, patches, cracks, etc., because of 
    their capabilities, (generating codes, etc.). Sometimes they're added to 
    the virus/spyware database and will be detected as malware. If you don't trust
    the keygens, patches, cracks, etc., don't use them. 
    
02- Before running .exe-files, keygens, patches, cracks, etc., always check first 
    if they can be unpacked. Often some third party added a virus to the 
    original file, repacked it and uploaded it again.

03- Letting anti-malware apps send scan results to their companies can cause
    keygens, patches, cracks, etc., to be added to their virus-database.

04- Firewalls which are set to automatically determine connections will allow 
    apps & malware!. Avoid this by manually configuring your firewall.

05- Usually (new) torrents with many downloads and seeders in a brief period is
    suspicious! Torrents with the Skull & Crossbones icon are trusted.

06- Some people use multiple accounts and post fake comments 
    and/or files trying to spread confusion. They seldom seriously
    comment or have any torrents, or a just a few to look passable.

07- Clicking on unknown links can cause malware to be installed on your machine.
  
08- In general often there are more fake and negative comments than reliable and
    positive comments.

09- In some countries uploading/downloading copyright protected material is 
    forbidden, but showing some appreciation to reliable up-loaders is not.

10- Posting fake and negative comments or fake/infected uploads on TPB can result
    in getting banned from TPB!

Requests?  Find me on SuprBay. http://forum.suprbay.org
 

For reporting bad or suspicious torrents:  
http://forum.suprbay.org/forumdisplay.php?fid=29

For more of my torrents: 
https://thepiratebay.org/user/big_dad_e/  (Secured)

All torrents scanned with:
Norton Anti-virus
Malwarebytes' Anti-malware
 
http://www.pirate-party.us/

ALWAYS SEED & THANKS SEEDERS!